<svg width="180" height="95" viewBox="0 0 180 95" fill="none" xmlns="http://www.w3.org/2000/svg">
<path d="M38.0755 13.3564V46.2509H28.0034V30.0267L19.4206 42.3414L11.1099 30.0713V46.2509H1.03467V13.3564H10.9274L19.4654 27.1973L28.2725 13.3564H38.0755Z" fill="black"/>
<path d="M54.6292 46.2509H44.5571V13.3564H54.6292V46.2509Z" fill="black"/>
<path d="M62.6484 35.5102C64.0639 36.3482 65.8414 37.046 67.9775 37.6004C70.1168 38.1548 72.1344 38.432 74.0303 38.432C75.3562 38.432 76.2817 38.3045 76.8069 38.0496C77.3321 37.7947 77.598 37.2626 77.598 36.4533C77.598 35.7938 77.3642 35.3541 76.8966 35.1279C76.429 34.9016 75.5483 34.685 74.2545 34.4747L72.6724 34.2039C69.5115 33.6049 66.9655 32.872 65.0375 32.0022C63.1096 31.1324 61.694 30.0459 60.7909 28.7427C59.8878 27.4395 59.4362 25.8592 59.4362 24.0016C59.4362 20.1686 60.4963 17.3584 62.6196 15.5741C64.7429 13.793 68.1984 12.9009 72.9863 12.9009C75.606 12.9009 78.104 13.245 80.4835 13.9364C82.863 14.6246 84.9703 15.5391 86.8085 16.6765L82.8374 23.7372C81.5115 23.0171 79.907 22.434 78.0271 21.9848C76.144 21.5355 74.3922 21.3125 72.7653 21.3125C71.622 21.3125 70.7989 21.4463 70.3025 21.7171C69.8061 21.9879 69.5563 22.4499 69.5563 23.1095C69.5563 23.6193 69.6908 24.008 69.9631 24.2788C70.2353 24.5497 70.61 24.744 71.0936 24.8619C71.5739 24.983 72.4322 25.1455 73.6684 25.3558C77.0695 25.8656 79.7885 26.5315 81.8221 27.3567C83.8558 28.1819 85.345 29.2429 86.2929 30.5461C87.2409 31.8493 87.7149 33.4902 87.7149 35.4688C87.7149 39.3942 86.6612 42.2618 84.5539 44.0747C82.4466 45.8877 78.9975 46.7926 74.2097 46.7926C71.2889 46.7926 68.5027 46.4389 65.8542 45.7379C63.2025 45.0338 60.9318 43.9919 59.0327 42.6155L62.6484 35.5102Z" fill="black"/>
<path d="M115.949 21.3984H107.366V46.2509H97.2938V21.3984H88.7109V13.3564H115.949V21.3984Z" fill="black"/>
<path d="M129.002 21.3984V25.7572H143.411V33.8023H129.002V38.2057H145.265V46.2509H118.93V13.3564H145.265V21.4016H129.002V21.3984Z" fill="black"/>
<path d="M169.07 46.2509L163.74 36.3195H160.669V46.2509H150.597V13.3564H166.315C170.411 13.3564 173.512 14.3665 175.619 16.3897C177.726 18.413 178.78 21.3857 178.78 25.3111C178.78 30.4951 176.973 33.6558 173.361 34.7933L180 46.2541H169.07V46.2509ZM167.827 27.6466C168.474 27.0794 168.797 26.2383 168.797 25.1295C168.797 22.6411 167.532 21.3984 165.002 21.3984H160.666V28.4973H165.002C166.238 28.5005 167.18 28.2169 167.827 27.6466Z" fill="black"/>
<path d="M39.1641 94.3244L32.0224 74.2513L24.8807 94.3244H14.45L0 53.0503H13.6589L19.6093 73.9136L26.8631 53.0503H37.1785L44.4323 73.7989L50.213 53.0503H63.8719L49.8735 93.4801L49.5917 94.3244H39.1641Z" fill="black"/>
<path d="M68.2657 89.5865C64.5059 85.9797 62.626 80.6779 62.626 73.6841C62.626 66.6936 64.5059 61.3917 68.2657 57.785C72.0255 54.175 77.5499 52.3716 84.8422 52.3716C92.1344 52.3716 97.6492 54.175 101.39 57.785C105.13 61.3917 107.001 66.6936 107.001 73.6841C107.001 80.6747 105.13 85.9765 101.39 89.5865C97.6492 93.1965 92.1312 94.9999 84.8422 94.9999C77.5499 94.9999 72.0223 93.1965 68.2657 89.5865ZM77.7293 65.6517C76.1216 67.4742 75.3209 70.1538 75.3209 73.6873C75.3209 77.2208 76.1248 79.8909 77.7293 81.6943C79.3337 83.4977 81.7036 84.3994 84.8422 84.3994C87.939 84.3994 90.2929 83.4977 91.8974 81.6943C93.5019 79.8909 94.3057 77.2208 94.3057 73.6873C94.3057 70.1538 93.5115 67.4774 91.9262 65.6517C90.3377 63.8292 87.9775 62.9179 84.8422 62.9179C81.7036 62.9179 79.3337 63.8292 77.7293 65.6517Z" fill="black"/>
<path d="M143.238 84.2305V94.3244H110.764V53.0503H123.516V84.2305H143.238Z" fill="black"/>
<path d="M159.606 63.141V68.9495H177.63V79.0434H159.606V94.3244H146.911V53.0503H179.952V63.1442H159.606V63.141Z" fill="black"/>
<path d="M61.1177 0L49.5917 5.68101L38.0688 0V11.2505L49.5917 5.94547L61.1177 11.2505V0Z" fill="black"/>
</svg>
