<svg width="90" height="48" viewBox="0 0 90 48" fill="none" xmlns="http://www.w3.org/2000/svg">
<g clip-path="url(#clip0_513_115)">
<path d="M19.0375 6.68213V23.1391H14.0015V15.0222L9.71004 21.1832L5.55472 15.0445V23.1391H0.51709V6.68213H5.46345L9.73246 13.6067L14.136 6.68213H19.0375Z" fill="white"/>
<path d="M27.3148 23.1391H22.2788V6.68213H27.3148V23.1391Z" fill="white"/>
<path d="M31.3244 17.7655C32.0322 18.1847 32.9209 18.5338 33.989 18.8111C35.0586 19.0885 36.0674 19.2272 37.0154 19.2272C37.6783 19.2272 38.1411 19.1634 38.4037 19.0359C38.6663 18.9084 38.7992 18.6422 38.7992 18.2373C38.7992 17.9073 38.6823 17.6873 38.4485 17.5742C38.2148 17.461 37.7744 17.3526 37.1275 17.2474L36.3365 17.1119C34.756 16.8122 33.483 16.4456 32.519 16.0104C31.555 15.5752 30.8473 15.0317 30.3957 14.3797C29.9441 13.7277 29.7184 12.9371 29.7184 12.0078C29.7184 10.0901 30.2484 8.68417 31.31 7.79151C32.3717 6.90043 34.0995 6.4541 36.4934 6.4541C37.8032 6.4541 39.0522 6.62626 40.242 6.97217C41.4317 7.31648 42.4854 7.77397 43.4045 8.34305L41.4189 11.8755C40.756 11.5152 39.9537 11.2235 39.0138 10.9987C38.0722 10.774 37.1963 10.6624 36.3829 10.6624C35.8112 10.6624 35.3997 10.7293 35.1515 10.8648C34.9033 11.0003 34.7784 11.2315 34.7784 11.5614C34.7784 11.8165 34.8457 12.0109 34.9818 12.1464C35.1179 12.2819 35.3052 12.3792 35.547 12.4382C35.7872 12.4987 36.2164 12.58 36.8345 12.6852C38.535 12.9403 39.8945 13.2734 40.9113 13.6863C41.9281 14.0991 42.6727 14.63 43.1467 15.2819C43.6207 15.9339 43.8577 16.7548 43.8577 17.7447C43.8577 19.7086 43.3308 21.1432 42.2772 22.0503C41.2236 22.9573 39.499 23.41 37.1051 23.41C35.6447 23.41 34.2516 23.233 32.9273 22.8823C31.6015 22.5301 30.4662 22.0088 29.5166 21.3202L31.3244 17.7655Z" fill="white"/>
<path d="M57.9743 10.7055H53.6829V23.1391H48.6469V10.7055H44.3555V6.68213H57.9743V10.7055Z" fill="white"/>
<path d="M64.5014 10.7055V12.8862H71.7055V16.9111H64.5014V19.1141H72.6327V23.1391H59.4653V6.68213H72.6327V10.7071H64.5014V10.7055Z" fill="white"/>
<path d="M84.535 23.1391L81.8705 18.1704H80.3349V23.1391H75.2988V6.68213H83.1579C85.206 6.68213 86.756 7.18744 87.8096 8.19966C88.8633 9.21188 89.3901 10.6991 89.3901 12.663C89.3901 15.2565 88.487 16.8378 86.6807 17.4069L90.0002 23.1407H84.535V23.1391ZM83.9137 13.8314C84.2372 13.5477 84.3989 13.1269 84.3989 12.5721C84.3989 11.3272 83.7664 10.7055 82.5014 10.7055H80.3333V14.257H82.5014C83.1195 14.2586 83.5903 14.1168 83.9137 13.8314Z" fill="white"/>
<path d="M19.5821 47.1898L16.0112 37.1473L12.4404 47.1898H7.22498L0 26.5405H6.82946L9.80464 36.9783L13.4315 26.5405H18.5893L22.2162 36.921L25.1065 26.5405H31.9359L24.9367 46.7674L24.7958 47.1898H19.5821Z" fill="white"/>
<path d="M34.1328 44.8196C32.2529 43.0152 31.313 40.3627 31.313 36.8637C31.313 33.3664 32.2529 30.7139 34.1328 28.9095C36.0127 27.1034 38.775 26.2012 42.4211 26.2012C46.0672 26.2012 48.8246 27.1034 50.6949 28.9095C52.5652 30.7139 53.5003 33.3664 53.5003 36.8637C53.5003 40.3611 52.5652 43.0136 50.6949 44.8196C48.8246 46.6257 46.0656 47.5279 42.4211 47.5279C38.775 47.5279 36.0111 46.6257 34.1328 44.8196ZM38.8646 32.8452C38.0608 33.757 37.6605 35.0975 37.6605 36.8653C37.6605 38.6331 38.0624 39.9689 38.8646 40.8712C39.6669 41.7734 40.8518 42.2245 42.4211 42.2245C43.9695 42.2245 45.1465 41.7734 45.9487 40.8712C46.7509 39.9689 47.1529 38.6331 47.1529 36.8653C47.1529 35.0975 46.7557 33.7585 45.9631 32.8452C45.1689 31.9334 43.9887 31.4775 42.4211 31.4775C40.8518 31.4775 39.6669 31.9334 38.8646 32.8452Z" fill="white"/>
<path d="M71.6188 42.1399V47.1898H55.3818V26.5405H61.7581V42.1399H71.6188Z" fill="white"/>
<path d="M79.803 31.5889V34.4948H88.8151V39.5448H79.803V47.1898H73.4556V26.5405H89.976V31.5905H79.803V31.5889Z" fill="white"/>
<path d="M30.5586 0L24.7956 2.84219L19.0342 0V5.62858L24.7956 2.97449L30.5586 5.62858V0Z" fill="white"/>
</g>
<defs>
<clipPath id="clip0_513_115">
<rect width="90" height="47.5281" fill="white"/>
</clipPath>
</defs>
</svg>
